<svg width="658.71" height="845.99" xmlns="http://www.w3.org/2000/svg">
 <defs>
  <style>.cls-1{fill:#007cab;}.cls-2{fill:#233e99;}.cls-3{fill:#2e3192;}.cls-4{fill:#006d96;}.cls-5,.cls-8{fill:#231f20;}.cls-6{fill:#fff;}.cls-7{fill:#f0efef;}.cls-8,.cls-9{stroke:#231f20;stroke-linecap:round;stroke-miterlimit:10;}.cls-8{stroke-width:10px;}.cls-9{fill:none;stroke-width:4px;}</style>
 </defs>
 <g>
  <title>background</title>
  <rect fill="none" id="canvas_background" height="602" width="802" y="-1" x="-1"/>
 </g>
 <g>
  <title>Layer 1</title>
  <g id="belly">
   <path id="svg_1" d="m532.91005,604.73l0,0c0,0.11 0,0.22 -0.05,0.34l0,0.2c0,0.13 0,0.27 -0.07,0.42c-0.09,0.52 -0.19,1.17 -0.29,2c-36.12,-4 -60.11,17.06 -82.68,40q-7,7.14 -13.35,14.8c-1.21,1.47 -2.39,2.94 -3.56,4.43c-0.88,1.12 -1.74,2.24 -2.6,3.37c-1.72,2.26 -3.39,4.55 -5,6.87s-3.24,4.65 -4.8,7s-3.09,4.76 -4.58,7.17c-0.75,1.21 -1.48,2.42 -2.21,3.64c-2.43,4.08 -4.76,8.2 -7,12.4q-4,7.53 -7.7,15.3c-10.3,21.82 -11.3,44.24 -2.47,67.77c0.29,0.76 0.58,1.53 0.89,2.29s0.62,1.54 0.95,2.31l-0.39,0c-3,0.26 -6,0.52 -8.93,0.75q-7,0.55 -14,1q-4.64,0.3 -9.27,0.54l0,0q-6.95,0.38 -13.88,0.64l0,0q-6.91,0.25 -13.84,0.39l-4.65,0.07q-4.61,0.06 -9.21,0.06q-16.82,0 -33.68,-0.84q-3.8,-0.19 -7.61,-0.43l-4.74,-0.32q-3.86,-0.27 -7.71,-0.6q-6.43,-0.54 -12.9,-1.23c6,-15.95 9.91,-31.19 6.6,-47.18c-1.44,-7 -2.58,-14.28 -5.55,-20.62c-19.29,-41.23 -44.11,-78.11 -81.91,-104.79c-15.11,-10.66 -31.45,-16.15 -50.92,-15.31c0.17,-3.4 -0.14,-6.33 0.51,-9c8.34,-34.33 22.72,-65.7 44.93,-93.31c6.28,-7.8 12.35,-10.44 22.59,-8.1l1.51,0.36c89,23.47 178.29,22.84 267.49,1.18l0.11,0l0.08,0c8.44,-2 14.44,-0.88 20,4.53c0.28,0.27 0.55,0.56 0.82,0.84s0.55,0.59 0.82,0.91c2.34,2.69 4.6,5.41 6.78,8.19c21,26.75 34.59,57.2 41.55,90.93a3.47,3.47 0 0 1 -0.08,1.03z" class="cls-1"/>
  </g>
  <g id="arms">
   <path id="svg_2" d="m194.00005,497.51c-10.24,-2.35 -16.31,0.3 -22.59,8.11c-22.23,27.65 -36.59,59.06 -44.93,93.46c-0.65,2.69 -0.34,5.62 -0.51,9c-45.16,0.75 -77.75,53.85 -77.75,53.85a35.64,35.64 0 0 0 -4.36,-1.63c-22.85,-4.94 -34.43,-21.65 -31.3,-45.11c2.75,-20.61 11.73,-38.72 22.24,-56.15c19.48,-32.32 43.84,-60.78 69.12,-88.49c2.35,-2.57 4.66,-5.21 7.43,-8.31c0,0.03 50.72,27.37 82.65,35.27z" class="cls-2"/>
   <path id="svg_3" d="m608.66005,661.48s-26.8,-47.26 -76,-52.34c0.1,-0.81 0.2,-1.45 0.29,-2c0,-0.14 0,-0.28 0.07,-0.41l0,-0.2c0,-0.12 0,-0.23 0.05,-0.34l0,0a2.89,2.89 0 0 0 0,-1.06c-7,-33.44 -20.51,-63.63 -41.55,-90.15q-3.25,-4.12 -6.77,-8.12c-0.28,-0.31 -0.55,-0.62 -0.83,-0.9s-0.54,-0.56 -0.82,-0.83c-5.54,-5.38 -11.56,-6.49 -20,-4.47c3.05,-0.89 68.27,-20.07 86.93,-32.47c10.9,12.27 21.83,24.19 32.33,36.48c19.64,23 38.25,46.7 51.61,74a142.43,142.43 0 0 1 9.69,24.7c9.11,33.15 -2.48,51.86 -35,58.11z" class="cls-2"/>
  </g>
  <g id="face_color">
   <path id="svg_4" d="m611.70005,353.26c-6.78,62.15 -37.12,106.79 -97.11,128.82c-56.4,20.72 -114.86,29.48 -190.18,29.4c-47.47,-0.39 -109.08,-8.17 -167.69,-32.22c-40.32,-16.55 -71.77,-43.45 -89.52,-83.95c-15.12,-34.51 -17.77,-71 -12,-107.91c9.49,-60.29 30.75,-116.18 69.37,-163.9c52.92,-65.41 122.73,-96.47 206.58,-95c117.03,2.11 219.22,76.6 260.52,189.18c16.06,43.73 25.14,88.67 20.03,135.58z" class="cls-1"/>
   <path id="svg_5" d="m147.73005,83.76a8,8 0 0 1 -0.12,1a8.42,8.42 0 0 1 -0.24,1a9.77,9.77 0 0 1 -1,2.15c-0.13,0.23 -0.27,0.45 -0.42,0.68a23.62,23.62 0 0 1 -1.92,2.49c-15.4,17.79 -30.35,36 -45,54.43c-3.18,4 -5.66,5.74 -10.87,4.76c-0.81,-0.15 -1.61,-0.32 -2.4,-0.5l-1.56,-0.39l-0.67,-0.18l-0.67,-0.19c-0.45,-0.12 -0.89,-0.26 -1.33,-0.4l-0.76,-0.24l-0.81,-0.27l-1.67,-0.61q-0.82,-0.31 -1.65,-0.66c-0.72,-0.31 -1.44,-0.62 -2.14,-1c-0.36,-0.17 -0.71,-0.33 -1.06,-0.51l-1.53,-0.79l-1.28,-0.71c-0.42,-0.23 -0.83,-0.48 -1.24,-0.73c-0.66,-0.4 -1.3,-0.81 -1.94,-1.23s-1.26,-0.86 -1.87,-1.31l-1.36,-1c-0.45,-0.36 -0.89,-0.71 -1.32,-1.07s-1.15,-1 -1.71,-1.49s-1.1,-1 -1.63,-1.56c0,0 0,0 0,0c-0.27,-0.26 -0.53,-0.52 -0.79,-0.79l-0.77,-0.81s0,0 0,0c-0.3,-0.32 -0.6,-0.65 -0.89,-1s-0.73,-0.84 -1.07,-1.27s-0.63,-0.77 -0.93,-1.16s-0.68,-0.89 -1,-1.35s-0.66,-0.91 -1,-1.38s-0.55,-0.83 -0.81,-1.25c-0.42,-0.67 -0.83,-1.35 -1.22,-2c-0.17,-0.3 -0.34,-0.6 -0.5,-0.91c-0.45,-0.81 -0.87,-1.64 -1.26,-2.48c-0.19,-0.4 -0.38,-0.81 -0.56,-1.22s-0.32,-0.72 -0.47,-1.09s-0.24,-0.59 -0.35,-0.88c-0.38,-1 -0.73,-1.94 -1,-2.93c-0.12,-0.37 -0.24,-0.73 -0.35,-1.11c-0.17,-0.56 -0.33,-1.12 -0.48,-1.69c-0.1,-0.37 -0.2,-0.75 -0.29,-1.14s-0.23,-1 -0.33,-1.44l-0.06,-0.32c-0.1,-0.48 -0.2,-1 -0.28,-1.44l-0.18,-1.09c0,-0.32 -0.1,-0.64 -0.14,-1c0,-0.11 0,-0.23 -0.05,-0.35l-0.09,-0.67c0,-0.07 0,-0.15 0,-0.22c0,-0.35 -0.08,-0.7 -0.11,-1.06s-0.08,-0.85 -0.1,-1.27s-0.07,-1 -0.09,-1.43s0,-0.73 0,-1.09c0,-0.54 0,-1.08 0,-1.63c0.08,-25.8 17.7,-46.62 43.62,-51.51q0.6,-0.12 1.2,-0.21c0.8,-0.13 1.6,-0.24 2.4,-0.34s1.54,-0.16 2.31,-0.21a3,3 0 0 1 0.42,0l0.87,-0.05l1,0l0.64,0c0.53,0 1.06,0 1.59,0s1,0 1.45,0s1,0 1.43,0.08l0.61,0.05c0.42,0 0.83,0.07 1.25,0.12c0.22,0 0.44,0 0.67,0.08c0.53,0.05 1.07,0.13 1.6,0.21s0.91,0.14 1.36,0.23l0.31,0.06q0.32,0 0.63,0.12c0.52,0.1 1,0.21 1.55,0.33s1.26,0.3 1.89,0.47l0,0c0.54,0.14 1.07,0.3 1.6,0.46s1.07,0.33 1.6,0.52l0.67,0.23c0.55,0.19 1.1,0.4 1.64,0.61l1.47,0.6l0.66,0.29q0.72,0.31 1.44,0.66c0.58,0.27 1.15,0.56 1.72,0.86s1,0.53 1.5,0.82l0.82,0.47c0.27,0.15 0.53,0.31 0.8,0.48s0.45,0.27 0.68,0.42c0.48,0.3 1,0.61 1.43,0.93s0.94,0.64 1.4,1s1.05,0.77 1.56,1.17l1.52,1.22a0.1,0.1 0 0 0 0,0c0.48,0.41 1,0.82 1.42,1.25s1,0.88 1.43,1.33l0.69,0.69c0.23,0.23 0.46,0.47 0.68,0.71c0.42,0.43 0.82,0.86 1.21,1.31s0.87,1 1.28,1.49l0.45,0.55c0.31,0.37 0.61,0.75 0.9,1.13s0.79,1.06 1.17,1.6c0.76,1.08 1.48,2.19 2.17,3.33a52.65,52.65 0 0 1 3.6,7.16l0.18,0.45c0.18,0.49 0.33,0.95 0.46,1.41s0.19,0.77 0.26,1.14c0,0.14 0.05,0.28 0.06,0.42a1.37,1.37 0 0 1 0,0.19a1.11,1.11 0 0 1 0,0.17a7.45,7.45 0 0 1 0.07,1.3z" class="cls-1"/>
   <path id="svg_6" d="m576.45005,148.86c-6.42,1.86 -10.07,0.55 -14.74,-5.07c-14.89,-17.9 -30.73,-35 -46.87,-51.84c-4.26,-4.43 -5,-7.69 -2.91,-13c0.25,-0.62 0.51,-1.24 0.79,-1.85c0.18,-0.4 0.36,-0.8 0.55,-1.19a0.3,0.3 0 0 1 0.06,-0.11c0.11,-0.24 0.23,-0.48 0.35,-0.72c0.21,-0.45 0.44,-0.89 0.68,-1.32c0.14,-0.27 0.29,-0.53 0.44,-0.8a0.05,0.05 0 0 1 0,0c0.21,-0.39 0.43,-0.77 0.66,-1.15c0.32,-0.55 0.66,-1.1 1,-1.63a0.21,0.21 0 0 0 0,-0.06c0.27,-0.41 0.54,-0.82 0.82,-1.22c0.39,-0.58 0.8,-1.16 1.23,-1.72l0.39,-0.52a0.47,0.47 0 0 1 0.09,-0.12c0.31,-0.42 0.64,-0.83 1,-1.23s0.79,-1 1.19,-1.42l0.08,-0.09c0.42,-0.48 0.85,-0.95 1.28,-1.41l0.24,-0.25c0.39,-0.41 0.79,-0.82 1.19,-1.21c0.94,-0.93 1.9,-1.81 2.9,-2.67l1.52,-1.25c0.52,-0.4 1,-0.8 1.57,-1.19s1.06,-0.77 1.6,-1.14s1.09,-0.73 1.65,-1.08s1.11,-0.69 1.68,-1c1.13,-0.66 2.29,-1.28 3.47,-1.86c0.51,-0.25 1,-0.49 1.56,-0.73l0.43,-0.19c0.53,-0.23 1.07,-0.46 1.6,-0.67s1.23,-0.48 1.85,-0.7s1.24,-0.44 1.87,-0.64l1.89,-0.56c0.52,-0.14 1.05,-0.28 1.57,-0.4l0.63,-0.15l0.21,-0.05l1.44,-0.31l0.09,0c0.46,-0.09 0.92,-0.17 1.39,-0.24a2,2 0 0 1 0.35,-0.06l0.33,0c0.61,-0.1 1.22,-0.18 1.84,-0.26s1.28,-0.13 1.92,-0.18c1.48,-0.12 3,-0.17 4.48,-0.16l1.23,0l1.23,0.06l1.22,0.08c0.81,0.06 1.62,0.14 2.42,0.24l1.2,0.16c0.79,0.12 1.58,0.25 2.37,0.4l0.82,0.17q0.41,0.08 0.81,0.18q0.82,0.18 1.62,0.39l0.24,0.06l1.36,0.38c0.53,0.15 1.06,0.32 1.59,0.49l0.82,0.27c0.5,0.17 1,0.35 1.48,0.54l0.42,0.16c0.71,0.27 1.41,0.56 2.11,0.87l1,0.46l1.25,0.6c0.3,0.15 0.59,0.29 0.88,0.45s0.69,0.36 1,0.54l1.39,0.79q0.46,0.25 0.9,0.54c0.9,0.55 1.78,1.13 2.64,1.73q0.66,0.45 1.29,0.93c0.37,0.27 0.73,0.55 1.09,0.83s0.65,0.51 1,0.78c0.71,0.58 1.4,1.18 2.07,1.79c0.5,0.46 1,0.92 1.47,1.39l0.66,0.67l0.65,0.67c0.43,0.46 0.85,0.92 1.27,1.39s0.74,0.85 1.1,1.29l0.39,0.48c0.3,0.37 0.6,0.75 0.89,1.14c0.76,1 1.49,2 2.17,3.07c0.41,0.62 0.8,1.26 1.18,1.9s0.58,1 0.86,1.49l0.4,0.76l0.4,0.77c0.15,0.28 0.29,0.56 0.42,0.85c0.24,0.5 0.48,1 0.7,1.51s0.44,1 0.65,1.5c0.43,1 0.82,2.1 1.18,3.18c0.2,0.61 0.39,1.23 0.57,1.84s0.35,1.25 0.51,1.88c0.1,0.37 0.19,0.75 0.27,1.13s0.17,0.76 0.25,1.14c0.11,0.54 0.21,1.08 0.31,1.63s0.21,1.25 0.29,1.88a52.68,52.68 0 0 1 -37.4,57.97z" class="cls-1"/>
  </g>
  <g id="face_outline">
   <path id="svg_7" d="m658.69005,89.99c-0.7,-38.21 -25.1,-73.31 -62.08,-84.37c-56.08,-16.76 -95,6.24 -120.08,56.75c-98.13,-54.65 -196.22,-58.21 -296,-1.39c-9.3,-21.84 -23.27,-38.94 -43.95,-49.86a92.06,92.06 0 0 0 -65.36,-8.6c-38.21,8.74 -68.19,40.64 -70.93,80.26c-3.82,55 25.75,87 77.52,101.88c-1.92,4.57 -3.65,8.58 -5.31,12.63c-18.8,45.88 -31.33,92.93 -27,143.19c4.2,49.06 24.84,89.38 63.35,120.35c2.48,2 4.92,4 7.94,6.49c0,0 50.72,27.06 82.65,34.88l1.51,0.36c89,23.27 178.29,22.64 267.49,1.17l0.11,0l0.08,0c4,-1.17 68.34,-20.15 86.85,-32.45a27.12,27.12 0 0 1 2.86,-3c43.93,-32.72 60.74,-78.53 62.57,-131.17c1.76,-50.62 -10.58,-98.42 -30.84,-144.43c-1.37,-3.12 -2.69,-6.26 -4,-9.41c50.51,-19.67 73.42,-49.36 72.62,-93.28zm-582.13,56.69c-0.72,-0.3 -1.44,-0.62 -2.14,-1c-0.36,-0.17 -0.71,-0.33 -1.06,-0.51l-1.53,-0.79l-1.28,-0.71c-0.42,-0.23 -0.83,-0.48 -1.24,-0.73c-0.66,-0.4 -1.3,-0.81 -1.94,-1.23s-1.26,-0.86 -1.87,-1.31l-1.36,-1c-0.45,-0.36 -0.89,-0.71 -1.32,-1.07s-1.15,-1 -1.71,-1.49s-1.1,-1 -1.63,-1.56c0,0 0,0 0,0l-0.79,-0.79c-0.26,-0.26 -0.52,-0.54 -0.77,-0.81c0,0 0,0 0,0c-0.3,-0.32 -0.6,-0.65 -0.89,-1s-0.73,-0.84 -1.07,-1.27s-0.63,-0.77 -0.93,-1.16s-0.68,-0.89 -1,-1.35s-0.66,-0.91 -1,-1.38s-0.55,-0.83 -0.81,-1.25c-0.42,-0.67 -0.83,-1.35 -1.22,-2c-0.17,-0.3 -0.34,-0.6 -0.5,-0.91c-0.45,-0.81 -0.87,-1.64 -1.26,-2.48c-0.2,-0.41 -0.38,-0.81 -0.56,-1.22s-0.32,-0.72 -0.47,-1.09s-0.24,-0.59 -0.35,-0.88c-0.38,-1 -0.73,-1.94 -1.05,-2.93c-0.12,-0.37 -0.24,-0.73 -0.35,-1.11c-0.17,-0.56 -0.33,-1.12 -0.48,-1.69c-0.1,-0.37 -0.2,-0.75 -0.29,-1.14s-0.23,-1 -0.33,-1.44l-0.06,-0.32c-0.1,-0.48 -0.2,-1 -0.28,-1.44l-0.18,-1.09c-0.05,-0.32 -0.1,-0.64 -0.14,-1c0,-0.11 0,-0.23 0,-0.35l-0.09,-0.67c0,-0.07 0,-0.15 0,-0.22c0,-0.35 -0.08,-0.7 -0.11,-1.06s-0.08,-0.85 -0.1,-1.27s-0.07,-1 -0.09,-1.43s0,-0.73 0,-1.09c0,-0.54 0,-1.08 0,-1.63c0.08,-25.8 17.7,-46.62 43.62,-51.51q0.6,-0.12 1.2,-0.21c0.8,-0.14 1.6,-0.25 2.4,-0.34s1.54,-0.16 2.31,-0.21a3,3 0 0 1 0.42,0l0.87,0l1,0l0.64,0c0.53,0 1.06,0 1.59,0s1,0 1.45,0s1,0 1.43,0.08l0.61,0c0.42,0 0.83,0.07 1.25,0.12c0.22,0 0.44,0 0.67,0.08c0.53,0 1.07,0.13 1.6,0.21s0.91,0.14 1.36,0.23l0.31,0.06q0.32,0 0.63,0.12c0.52,0.1 1,0.21 1.55,0.33s1.26,0.3 1.89,0.47l0,0c0.54,0.14 1.07,0.3 1.6,0.46s1.07,0.33 1.6,0.52l0.67,0.23c0.55,0.19 1.1,0.4 1.64,0.61s1,0.39 1.47,0.6l0.66,0.29c0.48,0.2 1,0.42 1.44,0.66s1.15,0.56 1.72,0.86s1,0.53 1.5,0.82c0.27,0.14 0.55,0.3 0.82,0.47s0.53,0.31 0.8,0.48s0.45,0.27 0.68,0.42c0.48,0.3 1,0.61 1.43,0.93s0.94,0.64 1.4,1s1.05,0.76 1.56,1.17s1,0.8 1.52,1.22a0.1,0.1 0 0 0 0,0c0.48,0.4 1,0.82 1.42,1.25s1,0.87 1.43,1.33l0.69,0.69c0.23,0.23 0.46,0.47 0.68,0.71c0.42,0.43 0.82,0.86 1.21,1.31s0.87,1 1.28,1.49l0.45,0.55c0.31,0.37 0.61,0.75 0.9,1.13s0.79,1.06 1.17,1.6c0.77,1.08 1.49,2.19 2.17,3.33a51.58,51.58 0 0 1 3.6,7.21c0.06,0.15 0.12,0.3 0.17,0.45c0.18,0.49 0.33,0.95 0.46,1.41a10.29,10.29 0 0 1 0.26,1.14c0,0.14 0.05,0.28 0.06,0.42a1.37,1.37 0 0 1 0,0.19a1.11,1.11 0 0 1 0,0.17a7.45,7.45 0 0 1 0,1.33a8,8 0 0 1 -0.12,1a8.42,8.42 0 0 1 -0.24,1a9.77,9.77 0 0 1 -1,2.15c-0.12,0.23 -0.27,0.45 -0.42,0.68a23.62,23.62 0 0 1 -1.92,2.49c-15.4,17.79 -30.35,36 -45,54.43c-3.18,4 -5.66,5.74 -10.87,4.76c-0.81,-0.15 -1.61,-0.32 -2.4,-0.5q-0.78,-0.18 -1.56,-0.39l-0.67,-0.18l-0.67,-0.19c-0.45,-0.12 -0.89,-0.26 -1.33,-0.4l-0.76,-0.24l-0.81,-0.27l-1.67,-0.61q-0.74,-0.37 -1.57,-0.74zm515.11,71c16.06,43.77 25.14,88.71 20,135.62c-6.78,62.15 -37.12,106.79 -97.11,128.82c-56.4,20.72 -114.86,29.48 -190.18,29.4c-47.47,-0.39 -109.08,-8.17 -167.69,-32.22c-40.32,-16.55 -71.77,-43.45 -89.52,-83.95c-15.12,-34.51 -17.77,-71 -12,-107.91c9.49,-60.29 30.75,-116.18 69.37,-163.9c52.92,-65.41 122.73,-96.47 206.58,-95c117.06,2.07 219.25,76.56 260.55,189.14zm-15.34,-68.85c-6.42,1.86 -10.07,0.55 -14.74,-5.07c-14.89,-17.94 -30.73,-35.08 -46.87,-51.88c-4.26,-4.43 -5,-7.69 -2.91,-13c0.25,-0.62 0.51,-1.24 0.79,-1.85c0.17,-0.4 0.36,-0.8 0.55,-1.19a0.3,0.3 0 0 1 0.06,-0.11a7.92,7.92 0 0 1 0.35,-0.72c0.21,-0.45 0.44,-0.89 0.68,-1.32c0.14,-0.27 0.28,-0.54 0.44,-0.8a0.05,0.05 0 0 1 0,0c0.21,-0.39 0.43,-0.77 0.66,-1.15c0.32,-0.55 0.66,-1.1 1,-1.63a0.21,0.21 0 0 0 0,-0.06c0.27,-0.41 0.54,-0.82 0.82,-1.22c0.39,-0.58 0.8,-1.16 1.23,-1.72l0.39,-0.52a0.47,0.47 0 0 1 0.09,-0.12c0.31,-0.42 0.63,-0.83 1,-1.23s0.79,-1 1.19,-1.42l0.12,-0.14c0.42,-0.48 0.84,-0.95 1.28,-1.41l0.24,-0.25c0.39,-0.41 0.79,-0.82 1.19,-1.21c0.93,-0.93 1.9,-1.82 2.9,-2.67l1.52,-1.25c0.52,-0.41 1,-0.81 1.57,-1.19s1.06,-0.77 1.6,-1.14s1.09,-0.73 1.65,-1.08s1.11,-0.69 1.68,-1c1.13,-0.67 2.29,-1.29 3.47,-1.86c0.51,-0.26 1,-0.5 1.56,-0.73l0.43,-0.19c0.53,-0.24 1.07,-0.46 1.6,-0.67s1.23,-0.48 1.85,-0.7s1.24,-0.44 1.87,-0.64s1.26,-0.39 1.89,-0.56s1.05,-0.28 1.57,-0.4l0.63,-0.15l0.21,0l1.44,-0.31l0.09,0c0.46,-0.09 0.92,-0.17 1.39,-0.24a2,2 0 0 1 0.35,-0.06a1.75,1.75 0 0 1 0.33,-0.05c0.61,-0.1 1.22,-0.18 1.84,-0.26s1.28,-0.14 1.92,-0.18c1.49,-0.13 3,-0.18 4.48,-0.17c0.41,0 0.82,0 1.23,0l1.23,0.06c0.41,0 0.82,0 1.22,0.08c0.81,0.06 1.62,0.14 2.42,0.24l1.2,0.16c0.79,0.11 1.58,0.25 2.37,0.4l0.82,0.17q0.41,0.08 0.81,0.18q0.82,0.18 1.62,0.39l0.24,0.06c0.45,0.12 0.91,0.24 1.36,0.38s1.06,0.32 1.59,0.49l0.82,0.27c0.5,0.17 1,0.35 1.48,0.54l0.42,0.16c0.71,0.27 1.41,0.56 2.11,0.87c0.34,0.14 0.69,0.3 1,0.46l1.25,0.6c0.3,0.15 0.59,0.29 0.88,0.45s0.69,0.36 1,0.54l1.39,0.79q0.46,0.25 0.9,0.54c0.9,0.55 1.78,1.13 2.64,1.73q0.66,0.45 1.29,0.93c0.37,0.27 0.73,0.55 1.09,0.83s0.65,0.51 1,0.78c0.71,0.58 1.4,1.18 2.07,1.79c0.5,0.45 1,0.92 1.47,1.39l0.66,0.67l0.65,0.67c0.43,0.45 0.86,0.92 1.27,1.39s0.74,0.85 1.1,1.29l0.39,0.48c0.3,0.37 0.6,0.75 0.89,1.14c0.76,1 1.49,2 2.17,3.07c0.41,0.62 0.8,1.26 1.18,1.9s0.58,1 0.86,1.49l0.4,0.76c0.14,0.26 0.28,0.51 0.4,0.77s0.29,0.56 0.42,0.85c0.24,0.5 0.48,1 0.7,1.51s0.44,1 0.65,1.5c0.43,1 0.82,2.1 1.18,3.18c0.2,0.61 0.39,1.23 0.57,1.84s0.36,1.25 0.51,1.88c0.1,0.37 0.19,0.75 0.27,1.13s0.17,0.76 0.25,1.14c0.12,0.54 0.22,1.08 0.31,1.63s0.21,1.25 0.29,1.88a52.68,52.68 0 0 1 -37.44,58.03l0,0.04z" class="cls-3"/>
  </g>
  <g id="foots">
   <path id="svg_8" d="m626.69005,691.99c-2.54,-12 -7.28,-23.52 -11,-35.18c0,0 -28.88,-50.93 -81.87,-56.4c-38.92,-4.28 -64.77,18.22 -89.09,42.71q-7.57,7.63 -14.38,15.82c-1.3,1.56 -2.58,3.13 -3.84,4.73c-1,1.2 -1.87,2.39 -2.8,3.6q-2.78,3.61 -5.42,7.34t-5.17,7.5q-2.52,3.78 -4.94,7.66c-0.81,1.29 -1.59,2.58 -2.38,3.89q-3.93,6.53 -7.54,13.24q-4.35,8 -8.3,16.34c-11.1,23.31 -12.17,47.26 -2.66,72.4c0.31,0.81 0.63,1.63 1,2.45s0.68,1.64 1,2.47l0,0c2.18,5.5 6.74,11 8.16,12.68l0,0a1.89,1.89 0 0 1 0.24,0.26l0.17,0.19c23.82,30.07 67.92,42.1 111.4,23.15c42.52,-18.55 76.31,-48.09 103.52,-85.24c12.99,-17.67 18.53,-37.86 13.9,-59.61zm-126.8,-67.93c0.71,0 1.41,0.06 2.11,0.14a21.9,21.9 0 0 1 3,0.58l1,0.29c0.24,0.08 0.49,0.16 0.72,0.25c0.48,0.17 1,0.37 1.4,0.57a20.35,20.35 0 0 1 2.65,1.42c0.22,0.13 0.42,0.27 0.63,0.41l0.81,0.59c0.53,0.39 1,0.83 1.53,1.27s0.95,0.91 1.39,1.41a20.81,20.81 0 0 1 1.84,2.34c0.37,0.55 0.71,1.11 1,1.7c0.2,0.37 0.39,0.73 0.56,1.11a19,19 0 0 1 0.93,2.34c0.16,0.49 0.31,1 0.43,1.52a20.57,20.57 0 0 1 0.6,4.81a20.77,20.77 0 0 1 -0.19,2.77c0,0.3 -0.08,0.61 -0.14,0.9a10.83,10.83 0 0 1 -0.24,1.16a19.68,19.68 0 0 1 -1.21,3.49c-0.24,0.52 -0.51,1 -0.79,1.52a17.54,17.54 0 0 1 -6.2,6.23c-0.22,0.14 -0.45,0.27 -0.68,0.39a17,17 0 0 1 -2.58,1.13a15.05,15.05 0 0 1 -1.77,0.53a9.18,9.18 0 0 1 -0.91,0.19c-0.3,0.06 -0.62,0.12 -0.93,0.16a19.51,19.51 0 0 1 -3.08,0.22a25,25 0 0 1 -7.51,-1.2c-0.8,-0.25 -1.57,-0.54 -2.33,-0.86a21.06,21.06 0 0 1 -2,-0.94a26.2,26.2 0 0 1 -2.75,-1.68c-5.24,-3.65 -8.73,-9.08 -8.74,-14.83c0.05,-10.9 9.92,-20.11 21.45,-19.93zm40.2,154c-12.9,28.19 -34.89,45.67 -65.82,48.51c-27.44,2.52 -47.59,-12.25 -61.7,-34.42c-5.91,-9.27 -8.3,-20.78 -12.3,-31.28l2.48,-0.94a54.23,54.23 0 0 1 0.68,-8.44c0.07,-0.4 0.13,-0.81 0.21,-1.22a66.52,66.52 0 0 1 2.68,-10.3c0.26,-0.79 0.54,-1.57 0.83,-2.35a0,0 0 0 0 0,0c0.51,-1.33 1,-2.66 1.63,-4c0.23,-0.56 0.48,-1.11 0.74,-1.65q0.95,-2 2,-4a91.68,91.68 0 0 1 13.32,-18.91c0.69,-0.75 1.39,-1.49 2.1,-2.21c0.89,-0.9 1.79,-1.78 2.71,-2.63c0.39,-0.36 0.77,-0.72 1.17,-1.07a68,68 0 0 1 15,-10.3c0.85,-0.42 1.7,-0.81 2.56,-1.19a48.59,48.59 0 0 1 7.82,-2.63c10.09,-2.43 22.59,-1.35 32.33,2.42c24.12,9.36 40.86,27.61 51.22,51.34c5.08,11.59 5.6,23.81 0.34,35.31l0,-0.04zm21.79,-89l-0.78,0a19.7,19.7 0 0 1 -2.3,-0.24a23.42,23.42 0 0 1 -5,-1.37a26.51,26.51 0 0 1 -4.29,-2.16c-0.68,-0.42 -1.35,-0.89 -2,-1.37c-6.16,-4.6 -10.51,-11.71 -10.61,-19c-0.15,-11.44 9.32,-20.24 21.81,-20.3c13,-0.06 23.26,9.81 23.44,22.52c0.14,9.78 -5.88,18.15 -14.19,20.93a18,18 0 0 1 -1.91,0.52c-0.32,0.07 -0.66,0.14 -1,0.19a17.42,17.42 0 0 1 -2.73,0.25l-0.44,0.03zm35.8,52.78c-0.21,0.22 -0.44,0.44 -0.67,0.65s-0.69,0.63 -1.06,0.92a18.08,18.08 0 0 1 -1.69,1.22c-0.39,0.25 -0.79,0.48 -1.19,0.7l-0.61,0.31c-0.27,0.14 -0.55,0.26 -0.83,0.38a15.86,15.86 0 0 1 -6.21,1.32c-0.28,0 -0.57,0 -0.85,0l-0.32,0l-0.14,0c-0.33,0 -0.64,-0.07 -1,-0.12l-0.09,0l-0.2,0c-0.13,0 -0.25,0 -0.38,-0.07l0,0a3.06,3.06 0 0 1 -0.4,-0.07l-0.3,-0.08a1.86,1.86 0 0 1 -0.39,-0.1l-0.3,-0.07l0,0c-0.11,0 -0.2,-0.06 -0.31,-0.09l-0.1,0a1,1 0 0 1 -0.22,-0.08a14.07,14.07 0 0 1 -1.53,-0.57l-0.37,-0.16l-0.34,-0.25l0,0l-0.1,0l0,0l-0.18,-0.09a20.91,20.91 0 0 1 -2.75,-1.63a21.39,21.39 0 0 1 -2.11,-1.64c-0.56,-0.48 -1.1,-1 -1.63,-1.53c-4.5,-4.6 -7.57,-11 -7.51,-17.29c0.11,-9.95 8,-17.21 18.82,-17.36c12.3,-0.17 21.17,8.55 21.15,20.78a21.7,21.7 0 0 1 -6.19,14.99l0,-0.07z" class="cls-3"/>
   <path id="svg_9" d="m540.09005,778.1c-12.9,28.19 -34.89,45.67 -65.82,48.51c-27.44,2.52 -47.59,-12.25 -61.7,-34.42c-5.91,-9.27 -8.3,-20.78 -12.3,-31.28l2.48,-0.94a54.23,54.23 0 0 1 0.68,-8.44c0.07,-0.4 0.13,-0.81 0.21,-1.22a66.52,66.52 0 0 1 2.68,-10.3c0.26,-0.79 0.54,-1.57 0.83,-2.35a0,0 0 0 0 0,0c0.51,-1.33 1,-2.66 1.63,-4c0.23,-0.56 0.48,-1.11 0.74,-1.65q0.95,-2 2,-4a91.68,91.68 0 0 1 13.32,-18.91c0.69,-0.75 1.39,-1.49 2.1,-2.21c0.89,-0.9 1.79,-1.78 2.71,-2.63c0.39,-0.36 0.77,-0.72 1.17,-1.07a68,68 0 0 1 15,-10.3c0.85,-0.42 1.7,-0.81 2.56,-1.19a48.59,48.59 0 0 1 7.82,-2.63c10.09,-2.43 22.59,-1.35 32.33,2.42c24.12,9.36 40.86,27.61 51.22,51.34c5.08,11.55 5.6,23.77 0.34,35.27z" class="cls-4"/>
   <path id="svg_10" d="m582.18005,667.23c0.14,9.78 -5.88,18.15 -14.19,20.93a18,18 0 0 1 -1.91,0.52c-0.32,0.07 -0.66,0.14 -1,0.19a16.93,16.93 0 0 1 -3.2,0.26a21.1,21.1 0 0 1 -3.08,-0.26a23.42,23.42 0 0 1 -5,-1.37a26.51,26.51 0 0 1 -4.29,-2.16c-0.68,-0.42 -1.35,-0.89 -2,-1.37c-6.16,-4.6 -10.51,-11.71 -10.61,-19c-0.15,-11.44 9.32,-20.24 21.81,-20.3c13,0.01 23.28,9.85 23.47,22.56z" class="cls-4"/>
   <path id="svg_11" d="m520.52005,644.81a21,21 0 0 1 -0.31,3.67a10.83,10.83 0 0 1 -0.24,1.16a19.68,19.68 0 0 1 -1.21,3.49c-0.24,0.52 -0.51,1 -0.79,1.52a17.54,17.54 0 0 1 -6.2,6.23c-0.22,0.14 -0.45,0.27 -0.68,0.39a17,17 0 0 1 -2.58,1.13a15.05,15.05 0 0 1 -1.77,0.53a9.18,9.18 0 0 1 -0.91,0.19c-0.3,0.06 -0.62,0.12 -0.93,0.16a19.51,19.51 0 0 1 -3.08,0.22a25,25 0 0 1 -7.51,-1.2c-0.8,-0.25 -1.57,-0.54 -2.33,-0.86s-1.33,-0.6 -2,-0.94a26.2,26.2 0 0 1 -2.75,-1.68c-5.24,-3.65 -8.73,-9.08 -8.74,-14.83c0,-10.9 9.85,-20.11 21.38,-19.93c0.71,0 1.41,0.06 2.11,0.14a21.9,21.9 0 0 1 3,0.58l1,0.29c0.24,0.08 0.49,0.16 0.72,0.25c0.48,0.17 1,0.37 1.4,0.57a23.08,23.08 0 0 1 2.65,1.42c0.22,0.13 0.42,0.27 0.63,0.41l0.81,0.59c0.53,0.39 1,0.83 1.53,1.27s0.95,0.91 1.39,1.41a20.81,20.81 0 0 1 1.84,2.34c0.37,0.55 0.71,1.11 1,1.7c0.2,0.37 0.39,0.73 0.56,1.11a19,19 0 0 1 0.93,2.34a20.67,20.67 0 0 1 1.08,6.33z" class="cls-4"/>
   <path id="svg_12" d="m603.87005,726.88a21.7,21.7 0 0 1 -6.19,15c-0.21,0.22 -0.44,0.44 -0.67,0.65s-0.69,0.63 -1.06,0.92a18.08,18.08 0 0 1 -1.69,1.22c-0.39,0.25 -0.79,0.48 -1.19,0.7l-0.61,0.31c-0.27,0.14 -0.55,0.26 -0.83,0.38a15.86,15.86 0 0 1 -6.21,1.32a16.1,16.1 0 0 1 -6.49,-1.39a21,21 0 0 1 -3.78,-2.1a21.39,21.39 0 0 1 -2.11,-1.64c-0.56,-0.48 -1.1,-1 -1.63,-1.53c-4.5,-4.6 -7.57,-11 -7.51,-17.29c0.11,-9.95 8,-17.21 18.82,-17.36c12.3,-0.14 21.17,8.61 21.15,20.81z" class="cls-4"/>
  </g>
  <g id="_2nd_foot">
   <path id="svg_13" d="m52.18005,746.79c26,35.45 58.2,63.64 98.79,81.34c41.49,18.09 83.57,6.6 106.3,-22.09l0.16,-0.18a1.74,1.74 0 0 1 0.23,-0.25l0,0c1.35,-1.58 5.7,-6.85 7.78,-12.1l0,0c0.34,-0.79 0.67,-1.57 1,-2.36s0.62,-1.56 0.91,-2.33c9.08,-24 8,-46.85 -2.54,-69.09q-3.76,-7.9 -7.91,-15.59q-3.46,-6.42 -7.2,-12.64c-0.75,-1.25 -1.5,-2.48 -2.27,-3.71c-1.54,-2.46 -3.11,-4.91 -4.71,-7.31s-3.25,-4.81 -4.94,-7.16s-3.4,-4.7 -5.17,-7q-1.32,-1.73 -2.67,-3.44q-1.81,-2.28 -3.66,-4.51q-6.51,-7.8 -13.73,-15.09c-23.21,-23.38 -47.87,-44.85 -85,-40.76c-50.57,5.22 -78.13,53.81 -78.13,53.81c-3.56,11.14 -8.08,22.13 -10.51,33.57c-4.4,20.72 0.9,39.99 13.27,56.89zm128.14,-102.72c0,5.48 -3.34,10.66 -8.33,14.15a24.89,24.89 0 0 1 -2.63,1.6a18.12,18.12 0 0 1 -1.89,0.89a23.54,23.54 0 0 1 -2.22,0.83a24.07,24.07 0 0 1 -7.17,1.14a17.86,17.86 0 0 1 -2.94,-0.21c-0.3,0 -0.59,-0.09 -0.88,-0.15a6.56,6.56 0 0 1 -0.88,-0.19a12.45,12.45 0 0 1 -1.68,-0.5a16.38,16.38 0 0 1 -2.46,-1.08c-0.23,-0.11 -0.44,-0.24 -0.66,-0.37a16.9,16.9 0 0 1 -5.91,-5.94c-0.27,-0.48 -0.52,-1 -0.75,-1.45a19,19 0 0 1 -1.16,-3.33c-0.09,-0.36 -0.17,-0.73 -0.23,-1.11s-0.09,-0.57 -0.13,-0.86a20.65,20.65 0 0 1 -0.18,-2.64a19.38,19.38 0 0 1 0.57,-4.6c0.11,-0.49 0.26,-1 0.41,-1.45a21.52,21.52 0 0 1 0.88,-2.23c0.17,-0.36 0.35,-0.71 0.54,-1.06q0.46,-0.84 1,-1.62a20.94,20.94 0 0 1 1.75,-2.23c0.43,-0.48 0.87,-0.92 1.33,-1.35s1,-0.83 1.46,-1.21l0.77,-0.56c0.2,-0.13 0.39,-0.27 0.6,-0.39a18.57,18.57 0 0 1 2.53,-1.36c0.43,-0.19 0.88,-0.38 1.33,-0.54l0.69,-0.24l0.93,-0.28a21.65,21.65 0 0 1 2.91,-0.55c0.67,-0.07 1.34,-0.12 2,-0.13c11.02,-0.18 20.43,8.63 20.41,19.02l-0.01,0zm-58.45,94.28c9.88,-22.65 25.86,-40.06 48.87,-49c9.3,-3.6 21.22,-4.63 30.86,-2.3a45.14,45.14 0 0 1 7.46,2.51c0.82,0.36 1.63,0.73 2.44,1.13a64.59,64.59 0 0 1 14.33,9.83l1.12,1c0.88,0.81 1.74,1.65 2.58,2.5c0.68,0.69 1.35,1.4 2,2.12a87.09,87.09 0 0 1 12.71,18c0.67,1.27 1.3,2.55 1.9,3.84c0.25,0.52 0.48,1 0.71,1.58c0.56,1.25 1.07,2.53 1.55,3.79a0,0 0 0 0 0,0c0.28,0.74 0.55,1.49 0.79,2.24a63.61,63.61 0 0 1 2.57,9.83c0.07,0.39 0.13,0.78 0.19,1.16a51.8,51.8 0 0 1 0.65,8.06l2.36,0.9c-3.81,10 -6.09,21 -11.73,29.85c-13.47,21.15 -32.7,35.25 -58.87,32.84c-29.52,-2.71 -50.51,-19.39 -62.82,-46.29c-4.99,-10.87 -4.49,-22.53 0.34,-33.59l-0.01,0zm-21.55,-51.22a15.81,15.81 0 0 1 -2.6,-0.24c-0.32,-0.05 -0.64,-0.11 -0.95,-0.18a18.81,18.81 0 0 1 -1.82,-0.5c-7.93,-2.65 -13.67,-10.64 -13.54,-20c0.17,-12.13 10,-21.54 22.36,-21.49c11.92,0.06 21,8.46 20.81,19.37c-0.09,6.92 -4.24,13.7 -10.11,18.09c-0.62,0.47 -1.26,0.91 -1.91,1.31a25.73,25.73 0 0 1 -4.09,2.07a22.26,22.26 0 0 1 -4.76,1.3a18,18 0 0 1 -2.2,0.23l-0.74,0l-0.45,0.04zm-39.62,36c0,-11.67 8.44,-20 20.19,-19.83c10.33,0.15 17.85,7.08 17.95,16.57c0.06,6 -2.87,12.11 -7.17,16.5c-0.5,0.51 -1,1 -1.55,1.46a22.84,22.84 0 0 1 -2,1.57a20.48,20.48 0 0 1 -2.62,1.55l-0.17,0.08l0,0l-0.11,0l0,0l-0.34,0.16l-0.35,0.15a15.08,15.08 0 0 1 -1.46,0.55l-0.21,0.07l-0.09,0l-0.3,0.08l0,0l-0.29,0.07a2.49,2.49 0 0 1 -0.37,0.09a1.82,1.82 0 0 1 -0.29,0.08a2.79,2.79 0 0 1 -0.38,0.07l0,0l-0.36,0.06l-0.19,0l-0.09,0c-0.3,0.05 -0.6,0.09 -0.91,0.12l-0.13,0l-0.31,0c-0.27,0 -0.55,0 -0.82,0a15.2,15.2 0 0 1 -5.92,-1.27a8,8 0 0 1 -0.79,-0.36c-0.2,-0.09 -0.39,-0.19 -0.59,-0.3c-0.38,-0.2 -0.76,-0.43 -1.13,-0.66a15,15 0 0 1 -1.61,-1.17c-0.35,-0.27 -0.68,-0.56 -1,-0.87s-0.44,-0.41 -0.65,-0.63a20.67,20.67 0 0 1 -5.93,-14.11l-0.01,-0.03z" class="cls-3"/>
   <path id="svg_14" d="m121.57005,772.04c12.31,26.9 33.3,43.58 62.82,46.29c26.17,2.41 45.4,-11.69 58.87,-32.84c5.64,-8.81 7.92,-19.81 11.73,-29.81l-2.36,-0.9a51.8,51.8 0 0 0 -0.65,-8.06c-0.06,-0.38 -0.12,-0.77 -0.19,-1.16a63.61,63.61 0 0 0 -2.61,-9.88c-0.24,-0.75 -0.51,-1.5 -0.79,-2.24a0,0 0 0 1 0,0c-0.48,-1.26 -1,-2.54 -1.55,-3.79c-0.23,-0.54 -0.46,-1.06 -0.71,-1.58c-0.6,-1.29 -1.23,-2.57 -1.9,-3.84a87.09,87.09 0 0 0 -12.71,-18c-0.66,-0.72 -1.33,-1.43 -2,-2.12c-0.84,-0.85 -1.7,-1.69 -2.58,-2.5l-1.12,-1a64.59,64.59 0 0 0 -14.31,-9.93c-0.81,-0.4 -1.62,-0.77 -2.44,-1.13a45.14,45.14 0 0 0 -7.46,-2.51c-9.64,-2.33 -21.56,-1.3 -30.86,2.3c-23,8.94 -39,26.35 -48.87,49c-4.83,11.07 -5.33,22.73 -0.31,33.7z" class="cls-4"/>
   <path id="svg_15" d="m81.42005,666.24c-0.13,9.33 5.61,17.32 13.54,20a18.81,18.81 0 0 0 1.82,0.5c0.31,0.07 0.63,0.13 0.95,0.18a16.1,16.1 0 0 0 3.05,0.25a19.34,19.34 0 0 0 2.94,-0.25a22.26,22.26 0 0 0 4.76,-1.3a25.73,25.73 0 0 0 4.09,-2.07c0.65,-0.4 1.29,-0.84 1.91,-1.31c5.87,-4.39 10,-11.17 10.11,-18.09c0.15,-10.91 -8.89,-19.31 -20.81,-19.37c-12.38,-0.1 -22.19,9.33 -22.36,21.46z" class="cls-4"/>
   <path id="svg_16" d="m140.24005,644.85a21.1,21.1 0 0 0 0.3,3.5c0.06,0.38 0.14,0.75 0.23,1.11a19,19 0 0 0 1.16,3.33c0.23,0.49 0.48,1 0.75,1.45a16.9,16.9 0 0 0 5.91,5.94c0.22,0.13 0.43,0.26 0.66,0.37a16.38,16.38 0 0 0 2.46,1.08a12.45,12.45 0 0 0 1.68,0.5a6.56,6.56 0 0 0 0.88,0.19c0.29,0.06 0.58,0.11 0.88,0.15a17.86,17.86 0 0 0 2.94,0.21a24.07,24.07 0 0 0 7.17,-1.14a23.54,23.54 0 0 0 2.22,-0.83c0.65,-0.27 1.28,-0.57 1.89,-0.89a24.89,24.89 0 0 0 2.63,-1.6c5,-3.49 8.32,-8.67 8.33,-14.15c0,-10.41 -9.39,-19.2 -20.4,-19c-0.67,0 -1.34,0.06 -2,0.13a21.65,21.65 0 0 0 -2.91,0.55l-0.93,0.28l-0.69,0.24c-0.45,0.16 -0.9,0.35 -1.33,0.54a22.58,22.58 0 0 0 -2.53,1.36c-0.21,0.12 -0.4,0.26 -0.6,0.39l-0.77,0.56c-0.5,0.38 -1,0.79 -1.46,1.21s-0.9,0.87 -1.33,1.35a20.94,20.94 0 0 0 -1.75,2.23q-0.53,0.78 -1,1.62c-0.19,0.35 -0.37,0.7 -0.54,1.06a21.52,21.52 0 0 0 -0.88,2.23a19.86,19.86 0 0 0 -0.97,6.03z" class="cls-4"/>
   <path id="svg_17" d="m60.71005,723.16a20.67,20.67 0 0 0 5.9,14.34c0.21,0.22 0.42,0.42 0.65,0.63s0.66,0.6 1,0.87a15,15 0 0 0 1.61,1.17c0.37,0.23 0.75,0.46 1.13,0.66c0.2,0.11 0.39,0.21 0.59,0.3a8,8 0 0 0 0.79,0.36a15.2,15.2 0 0 0 5.92,1.27a15.48,15.48 0 0 0 6.2,-1.33a19.65,19.65 0 0 0 3.6,-2a22.84,22.84 0 0 0 2,-1.57c0.53,-0.46 1,-0.95 1.55,-1.46c4.3,-4.39 7.23,-10.5 7.17,-16.5c-0.1,-9.49 -7.62,-16.42 -17.95,-16.57c-11.69,-0.16 -20.18,8.16 -20.16,19.83z" class="cls-4"/>
  </g>
  <g id="Layer_8">
   <path id="svg_18" d="m512.82005,184.78c-13.08,8 -12.45,-15.69 -36.2,-32.71c-19.82,-14.2 -38.7,-6.83 -38.63,-18.08s23,-17.79 53,1.13c22.26,14.07 37.02,40.34 21.83,49.66z" class="cls-5"/>
  </g>
  <g id="Layer_9">
   <path id="svg_19" d="m158.33005,181.32c11.64,8 11.49,-14 33.19,-28.82c18.09,-12.34 35,-4.74 35.09,-15.17s-20.39,-17.4 -47.7,-1.11c-20.32,12.12 -34.09,35.85 -20.58,45.1z" class="cls-5"/>
  </g>
  <g id="Layer_10">
   <circle id="svg_20" transform="rotate(-76.72000122070312 372.7000122070313,-410.04998779296875) " r="59.96" cy="-194.89999" cx="-259.66999" class="cls-6"/>
   <path id="svg_21" d="m472.07005,206.42a59.58,59.58 0 0 1 9.71,32.69a60,60 0 0 1 -60,60a59.73,59.73 0 0 1 -35.37,-11.54a59.91,59.91 0 0 0 50.25,27.26a60,60 0 0 0 60,-60a59.84,59.84 0 0 0 -24.59,-48.41z" class="cls-7"/>
   <path id="svg_22" d="m436.81005,317.54a62.78,62.78 0 0 1 -62.71,-62.71a62.78,62.78 0 0 1 62.71,-62.71a62.78,62.78 0 0 1 62.71,62.71a62.78,62.78 0 0 1 -62.71,62.71zm0,-119.92a57.27,57.27 0 0 0 -57.2,57.21a57.27,57.27 0 0 0 57.2,57.2a57.27,57.27 0 0 0 57.21,-57.2a57.28,57.28 0 0 0 -57.21,-57.21z" class="cls-5"/>
   <circle id="svg_23" r="33.51" cy="253.63" cx="441.56" class="cls-5"/>
   <circle id="svg_24" r="13.71" cy="240.01" cx="436.08" class="cls-6"/>
  </g>
  <g stroke="null" id="Layer_11">
   <circle stroke="null" id="svg_25" transform="rotate(-45 671.3699951171878,-489.3999938964842) " r="58.21" cy="-274.24999" cx="-167.4" class="cls-6"/>
   <path stroke="null" id="svg_26" d="m264.65005,208.83a57.94,57.94 0 0 1 9.42,31.74a58.21,58.21 0 0 1 -58.21,58.21a57.9,57.9 0 0 1 -34.33,-11.21a58.16,58.16 0 0 0 48.79,26.47a58.21,58.21 0 0 0 58.2,-58.21a58.12,58.12 0 0 0 -23.87,-47z" class="cls-7"/>
   <path stroke="null" id="svg_27" d="m230.41005,316.68a61,61 0 0 1 -60.88,-60.88a61,61 0 0 1 60.88,-60.89a61,61 0 0 1 60.89,60.89a61,61 0 0 1 -60.89,60.88zm0,-116.42a55.6,55.6 0 0 0 -55.53,55.54a55.59,55.59 0 0 0 55.53,55.53a55.59,55.59 0 0 0 55.54,-55.53a55.6,55.6 0 0 0 -55.54,-55.51l0,-0.03z" class="cls-5"/>
   <circle stroke="null" id="svg_28" r="36.41" cy="254.63" cx="228.39" class="cls-5"/>
   <path stroke="null" id="svg_29" d="m234.36005,248.02a14.9,14.9 0 0 1 -14.9,14.89a14.9,14.9 0 0 1 -14.9,-14.89a14.9,14.9 0 0 1 14.9,-14.9a14.9,14.9 0 0 1 14.9,14.9z" class="cls-6"/>
  </g>
  <g id="Layer_12">
   <line id="svg_30" y2="379.92" x2="433.06" y1="379.92" x1="251.62" class="cls-8"/>
   <path id="svg_31" d="m234.36005,360.21s-22.79,16.62 0,39.41" class="cls-9"/>
   <path id="svg_32" d="m449.79005,360.21s22.79,16.62 0,39.41" class="cls-9"/>
  </g>
  <g id="svg_40">
   <line transform="rotate(-36.33583068847656 232.33999633789057,259.9200134277343) " id="svg_37" y2="259.92" x2="323.06" y1="259.92" x1="141.62" class="cls-8"/>
   <path id="svg_38" d="m110.36005,280.62" class="cls-9"/>
   <line transform="rotate(-36.33583068847656 232.33999633789057,259.9200134277343) " id="svg_41" y2="259.92" x2="323.06" y1="259.92" x1="141.62" class="cls-8"/>
   <line fill="none" transform="rotate(46.7362174987793 232.33999633789065,259.9200134277344) " id="svg_42" y2="259.92" x2="323.06" y1="259.92" x1="141.62" class="cls-8"/>
   <line fill="none" transform="rotate(46.7362174987793 435.3399963378906,247.92001342773438) " id="svg_43" y2="247.92" x2="526.06" y1="247.92" x1="344.62" class="cls-8"/>
   <line transform="rotate(-36.33583068847656 433.3399963378908,251.92001342773446) " id="svg_44" y2="251.92" x2="524.06" y1="251.92" x1="342.62" class="cls-8"/>
  </g>
 </g>
</svg>